<svg width="512" height="512" viewBox="0 0 512 512" fill="none" xmlns="http://www.w3.org/2000/svg">
  <rect width="512" height="512" rx="140" fill="#10253F"/>
  <path d="M110 178C110 156.909 127.091 139.818 148.182 139.818H181.636C202.727 139.818 219.818 156.909 219.818 178V334C219.818 355.091 202.727 372.182 181.636 372.182H148.182C127.091 372.182 110 355.091 110 334V178Z" fill="#F7F3EA"/>
  <path d="M292.182 178C292.182 156.909 309.273 139.818 330.364 139.818H363.818C384.909 139.818 402 156.909 402 178V334C402 355.091 384.909 372.182 363.818 372.182H330.364C309.273 372.182 292.182 355.091 292.182 334V178Z" fill="#F7F3EA"/>
  <rect x="176" y="227" width="160" height="58" rx="29" fill="#FF9A3D"/>
  <rect x="198" y="202" width="116" height="108" rx="54" stroke="#FFCF99" stroke-width="18"/>
</svg>
